<svg xmlns="http://www.w3.org/2000/svg" width="16" height="16" viewBox="0 0 16 16" fill="none">
  <path d="M7.00002 12.4L3.30002 8.7C3.11746 8.51371 3.01579 8.2629 3.0171 8.00207C3.01842 7.74125 3.12262 7.49148 3.30705 7.30704C3.49149 7.1226 3.74126 7.0184 4.00209 7.01709C4.26292 7.01577 4.51373 7.11744 4.70002 7.3L7.00002 9.6L12.3 4.3C12.4863 4.11744 12.7371 4.01577 12.9979 4.01709C13.2588 4.0184 13.5085 4.1226 13.693 4.30704C13.8774 4.49148 13.9816 4.74125 13.9829 5.00207C13.9843 5.2629 13.8826 5.51371 13.7 5.7L7.00002 12.4Z" fill="#4AB4FF"/>
</svg>